<svg width="149" height="95" viewBox="0 0 149 95" fill="none" xmlns="http://www.w3.org/2000/svg">
<g clip-path="url(#clip0_8_29)">
<path fill-rule="evenodd" clip-rule="evenodd" d="M97.232 0C100.49 0 103.131 2.6409 103.131 5.89861V88.4792C103.131 91.7369 100.49 94.3778 97.232 94.3778C93.9743 94.3778 91.3334 91.7369 91.3334 88.4792V5.89861C91.3334 2.6409 93.9743 0 97.232 0ZM51.5652 4.56667C54.823 4.56667 57.4639 7.20757 57.4639 10.4653V80.8681C57.4639 84.1258 54.823 86.7667 51.5652 86.7667C48.3075 86.7667 45.6666 84.1258 45.6666 80.8681V10.4653C45.6666 7.20757 48.3075 4.56667 51.5652 4.56667ZM82.0097 4.56667C85.2674 4.56667 87.9083 7.20757 87.9083 10.4653V80.8681C87.9083 84.1258 85.2674 86.7667 82.0097 86.7667C78.752 86.7667 76.1111 84.1258 76.1111 80.8681V10.4653C76.1111 7.20757 78.752 4.56667 82.0097 4.56667ZM36.3431 12.1778C39.6008 12.1778 42.2417 14.8187 42.2417 18.0764V76.3014C42.2417 79.5591 39.6008 82.2 36.3431 82.2C33.0854 82.2 30.4445 79.5591 30.4445 76.3014V18.0764C30.4445 14.8187 33.0854 12.1778 36.3431 12.1778ZM112.454 12.1778C115.712 12.1778 118.353 14.8187 118.353 18.0764V76.3014C118.353 79.5591 115.712 82.2 112.454 82.2C109.197 82.2 106.556 79.5591 106.556 76.3014V18.0764C106.556 14.8187 109.197 12.1778 112.454 12.1778ZM127.676 12.1778C130.934 12.1778 133.575 14.8187 133.575 18.0764V76.3014C133.575 79.5591 130.934 82.2 127.676 82.2C124.419 82.2 121.778 79.5591 121.778 76.3014V18.0764C121.778 14.8187 124.419 12.1778 127.676 12.1778ZM21.1208 16.7444C24.3785 16.7444 27.0194 19.3853 27.0194 22.643V70.2125C27.0194 73.4702 24.3785 76.1111 21.1208 76.1111C17.8631 76.1111 15.2222 73.4702 15.2222 70.2125L15.2222 22.643C15.2222 19.3853 17.8631 16.7444 21.1208 16.7444ZM66.7875 22.8333C70.0452 22.8333 72.6861 25.4742 72.6861 28.7319V64.1236C72.6861 67.3813 70.0452 70.0222 66.7875 70.0222C63.5298 70.0222 60.8889 67.3813 60.8889 64.1236V28.7319C60.8889 25.4742 63.5298 22.8333 66.7875 22.8333ZM142.899 27.4C146.156 27.4 148.797 30.0409 148.797 33.2986V59.5569C148.797 62.8147 146.156 65.4556 142.899 65.4556C139.641 65.4556 137 62.8147 137 59.5569V33.2986C137 30.0409 139.641 27.4 142.899 27.4ZM5.89861 31.9667C9.15632 31.9667 11.7972 34.6076 11.7972 37.8653V56.5125C11.7972 59.7702 9.15632 62.4111 5.89861 62.4111C2.6409 62.4111 0 59.7702 0 56.5125V37.8653C0 34.6076 2.6409 31.9667 5.89861 31.9667Z" fill="#1ED760"/>
</g>
<defs>
<clipPath id="clip0_8_29">
<rect width="148.797" height="94.3778" fill="white"/>
</clipPath>
</defs>
</svg>
